<mxfile host="app.diagrams.net" agent="Mozilla/5.0 (Windows NT 10.0; Win64; x64) AppleWebKit/537.36 (KHTML, like Gecko) Chrome/122.0.0.0 Safari/537.36" version="25.0.3">
  <diagram name="Trang-1" id="G4h9ja2mfrsMN4oZUiwR">
    <mxGraphModel dx="1050" dy="522" grid="1" gridSize="10" guides="1" tooltips="1" connect="1" arrows="1" fold="1" page="1" pageScale="1" pageWidth="827" pageHeight="1169" math="0" shadow="0">
      <root>
        <mxCell id="0" />
        <mxCell id="1" parent="0" />
        <mxCell id="nhEuf4DRmhssYW6jspNy-1" value="&lt;div&gt;System&lt;/div&gt;&lt;div&gt;&lt;br&gt;&lt;/div&gt;&lt;div&gt;&lt;br&gt;&lt;/div&gt;&lt;div&gt;&lt;br&gt;&lt;/div&gt;&lt;div&gt;&lt;br&gt;&lt;/div&gt;&lt;div&gt;&lt;br&gt;&lt;/div&gt;&lt;div&gt;&lt;br&gt;&lt;/div&gt;&lt;div&gt;&lt;br&gt;&lt;/div&gt;&lt;div&gt;&lt;br&gt;&lt;/div&gt;&lt;div&gt;&lt;br&gt;&lt;/div&gt;&lt;div&gt;&lt;br&gt;&lt;/div&gt;&lt;div&gt;&lt;br&gt;&lt;/div&gt;&lt;div&gt;&lt;br&gt;&lt;/div&gt;&lt;div&gt;&lt;br&gt;&lt;/div&gt;&lt;div&gt;&lt;br&gt;&lt;/div&gt;&lt;div&gt;&lt;br&gt;&lt;/div&gt;&lt;div&gt;&lt;br&gt;&lt;/div&gt;&lt;div&gt;&lt;br&gt;&lt;/div&gt;&lt;div&gt;&lt;br&gt;&lt;/div&gt;&lt;div&gt;&lt;br&gt;&lt;/div&gt;&lt;div&gt;&lt;br&gt;&lt;/div&gt;" style="html=1;whiteSpace=wrap;align=center;" vertex="1" parent="1">
          <mxGeometry x="290" y="70" width="230" height="310" as="geometry" />
        </mxCell>
        <mxCell id="nhEuf4DRmhssYW6jspNy-3" value="On Demand Tutor" style="ellipse;whiteSpace=wrap;html=1;" vertex="1" parent="1">
          <mxGeometry x="361" y="205" width="106" height="40" as="geometry" />
        </mxCell>
        <mxCell id="nhEuf4DRmhssYW6jspNy-4" value="Guest" style="shape=umlActor;verticalLabelPosition=bottom;verticalAlign=top;html=1;" vertex="1" parent="1">
          <mxGeometry x="600" y="195" width="30" height="60" as="geometry" />
        </mxCell>
        <mxCell id="nhEuf4DRmhssYW6jspNy-5" value="" style="endArrow=none;startArrow=none;endFill=0;startFill=0;endSize=8;html=1;verticalAlign=bottom;labelBackgroundColor=none;strokeWidth=1;rounded=0;entryX=0.5;entryY=0.5;entryDx=0;entryDy=0;entryPerimeter=0;" edge="1" parent="1" target="nhEuf4DRmhssYW6jspNy-4">
          <mxGeometry width="160" relative="1" as="geometry">
            <mxPoint x="467" y="224.5" as="sourcePoint" />
            <mxPoint x="550" y="225" as="targetPoint" />
            <Array as="points">
              <mxPoint x="547" y="224.5" />
            </Array>
          </mxGeometry>
        </mxCell>
        <mxCell id="nhEuf4DRmhssYW6jspNy-6" value="Visit" style="text;html=1;align=center;verticalAlign=middle;resizable=0;points=[];autosize=1;strokeColor=none;fillColor=none;" vertex="1" parent="1">
          <mxGeometry x="529" y="195" width="50" height="30" as="geometry" />
        </mxCell>
        <mxCell id="nhEuf4DRmhssYW6jspNy-8" style="edgeStyle=orthogonalEdgeStyle;rounded=0;orthogonalLoop=1;jettySize=auto;html=1;exitX=0.5;exitY=0.5;exitDx=0;exitDy=0;exitPerimeter=0;entryX=0.5;entryY=0;entryDx=0;entryDy=0;endArrow=none;endFill=0;" edge="1" parent="1" source="nhEuf4DRmhssYW6jspNy-7" target="nhEuf4DRmhssYW6jspNy-3">
          <mxGeometry relative="1" as="geometry">
            <Array as="points">
              <mxPoint x="414" y="130" />
            </Array>
          </mxGeometry>
        </mxCell>
        <mxCell id="nhEuf4DRmhssYW6jspNy-7" value="Student" style="shape=umlActor;verticalLabelPosition=bottom;verticalAlign=top;html=1;" vertex="1" parent="1">
          <mxGeometry x="120" y="100" width="30" height="60" as="geometry" />
        </mxCell>
        <mxCell id="nhEuf4DRmhssYW6jspNy-9" value="Use" style="text;html=1;align=center;verticalAlign=middle;resizable=0;points=[];autosize=1;strokeColor=none;fillColor=none;" vertex="1" parent="1">
          <mxGeometry x="210" y="98" width="40" height="30" as="geometry" />
        </mxCell>
      </root>
    </mxGraphModel>
  </diagram>
</mxfile>
